# AST/ASF file generated using VICON BodyLanguage
# -----------------------------------------------
:version 1.10
:name VICON
:units
  mass 1.0
  length 0.45
  angle deg
:documentation
   .ast/.asf automatically generated from VICON data using
   VICON BodyBuilder and BodyLanguage model FoxedUp or BRILLIANT.MOD
:root
   order TX TY TZ RX RY RZ
   axis XYZ
   position 0 0 0  
   orientation 0 0 0 
:bonedata
  begin
     id 1 
     name lhipjoint
     direction 0.623529 -0.717805 0.309788 
     length 2.23224 
     axis 0 0 0  XYZ
  end
  begin
     id 2 
     name lfemur
     direction 0.34202 -0.939693 0  
     length 7.11402  
     axis 0 0 20  XYZ
    dof rx ry rz
    limits (-160.0 20.0)
           (-70.0 70.0)
           (-60.0 70.0)
  end
  begin
     id 3 
     name ltibia
     direction 0.34202 -0.939693 0   
     length 6.78496   
     axis 0 0 20   XYZ
    dof rx
    limits (-10.0 170.0)
  end
  begin
     id 4 
     name lfoot
     direction 0.125078 -0.343648 0.930732   
     length 1.84054   
     axis -90 7.62852e-016 20   XYZ
    dof rx rz
    limits (-45.0 90.0)
           (-70.0 20.0)
  end
  begin
     id 5 
     name ltoes
     direction 1.53565e-011 -4.21893e-011 1   
     length 0.916474   
     axis -90 7.62852e-016 20   XYZ
    dof rx
    limits (-90.0 20.0)
  end
  begin
     id 6 
     name rhipjoint
     direction -0.564688 -0.757748 0.327026   
     length 2.11457  
     axis 0 0 0  XYZ 
  end
  begin
     id 7 
     name rfemur
     direction -0.34202 -0.939693 0   
     length 7.14609   
     axis 0 0 -20   XYZ
    dof rx ry rz
    limits (-160.0 20.0)
           (-70.0 70.0)
           (-70.0 60.0)
  end
  begin
     id 8 
     name rtibia
     direction -0.34202 -0.939693 0   
     length 6.78101   
     axis 0 0 -20   XYZ
    dof rx
    limits (-10.0 170.0)
 end
 begin
     id 9 
     name rfoot
     direction -0.0992671 -0.272734 0.956955   
     length 1.96168  
     axis -90 -7.62852e-016 -20   XYZ
    dof rx rz
    limits (-45.0 90.0)
           (-20.0 70.0)
  end
  begin
     id 10 
     name rtoes
     direction -1.5356e-011 -4.21891e-011 1   
     length 0.982933   
     axis -90 -7.62852e-016 -20   XYZ
    dof rx
    limits (-90.0 20.0)
  end
  begin
     id 11 
     name lowerback
     direction -0.00596953 0.998668 0.0512524   
     length 1.87557   
     axis 0 0 0   XYZ
    dof rx ry rz
    limits (-20.0 45.0)
           (-30.0 30.0)
           (-30.0 30.0)
  end
  begin
     id 12 
     name upperback
     direction 0.00584879 0.999652 0.0257308   
     length 1.87883   
     axis 0 0 0   XYZ
    dof rx ry rz
    limits (-20.0 45.0)
           (-30.0 30.0)
           (-30.0 30.0)
  end
  begin
     id 13 
     name thorax
     direction 0.010104 0.999947 0.00178881   
     length 1.87779   
     axis 0 0 0   XYZ
    dof rx ry rz
    limits (-20.0 45.0)
           (-30.0 30.0)
           (-30.0 30.0)
  end
  begin
     id 14 
     name lowerneck
     direction 0.0120771 0.995934 -0.0892773   
     length 1.40897   
     axis 0 0 0   XYZ
    dof rx ry rz
    limits (-20.0 45.0)
           (-30.0 30.0)
           (-30.0 30.0)
  end
  begin
     id 15 
     name upperneck
     direction -0.030568 0.999465 -0.0116366   
     length 1.38661   
     axis 0 0 0   XYZ
    dof rx ry rz
    limits (-20.0 45.0)
           (-30.0 30.0)
           (-30.0 30.0)
  end
  begin
     id 16
     name head
     direction -0.0170715 0.999854 -0.00104426  
     length 1.47052  
     axis 0 0 0   XYZ
    dof rx ry rz
    limits (-20.0 45.0)
           (-30.0 30.0)
           (-30.0 30.0)
  end
  begin
     id 17 
     name lclavicle
     direction 0.977763 0.206143 0.038532  
     length 3.02424  
     axis 0 0 0   XYZ
    dof ry rz
    limits (-20.0 10.0)
           (0.0 20.0)
  end
  begin
     id 18 
     name lhumerus
     direction 1 -4.48965e-011 -2.62654e-027   
     length 4.68382   
     axis 180 -30 -90   XYZ
    dof rx ry rz
    limits (-60.0 90.0)
           (-90.0 90.0)
           (-90.0 90.0)
  end
  begin
     id 19
     name lradius
     direction 1 -4.48973e-011 -1.54954e-027   
     length 2.98124   
     axis 180 -30 -90   XYZ
    dof rx
    limits (-10.0 170.0)
  end
  begin
     id 20
     name lwrist
     direction 1 -4.48959e-011 7.20928e-028   
     length 1.49062   
     axis -5.52449e-016 90 90   XYZ
    dof ry
    limits (-180.0 0.0)
 end
  begin
     id 21 
     name lhand
     direction 1 -4.48971e-011 1.44186e-027   
     length 0.707595   
     axis -9.20027e-016 90 90   XYZ
    dof rx rz
    limits (-90.0 90.0)
           (-45.0 45.0)
  end
  begin
     id 22 
     name lfingers
     direction 1 -4.48985e-011 2.88371e-027   
     length 0.570481   
     axis -1.84005e-015 90 90   XYZ
    dof rx
    limits (0.0 90.0)
  end
  begin
     id 23
     name lthumb
     direction 0.707107 -6.34929e-011 0.707107   
     length 0.819101   
     axis -90 45 2.85299e-015   XYZ
    dof rx rz
    limits (-45.0 45.0)
           (-45.0 45.0)
  end
  begin
     id 24 
     name rclavicle
     direction -0.958661 0.284411 -0.00895327   
     length 3.11921  
     axis 0 0 0   XYZ 
    dof ry rz
    limits (-10.0 20.0)
           (-20.0 0.0)
  end
  begin
     id 25 
     name rhumerus
     direction -1 -4.48963e-011 -4.22193e-027  
     length 4.75876   
     axis 180 30 90   XYZ
    dof rx ry rz
    limits (-90.0 60.0)
           (-90.0 90.0)
           (-90.0 90.0)
  end
  begin
     id 26 
     name rradius
     direction -1 -4.48968e-011 -1.07616e-027   
     length 2.93293   
     axis 180 30 90   XYZ
    dof rx
    limits (-10.0 170.0)
  end
  begin
     id 27 
     name rwrist
     direction -1 -4.48965e-011 7.20928e-028   
     length 1.46647   
     axis -5.52449e-016 -90 -90   XYZ
    dof ry
    limits (-180.0 0.0)
  end
  begin
     id 28
     name rhand
     direction -1 -4.48971e-011 1.44186e-027   
     length 0.831748   
     axis -9.20027e-016 -90 -90   XYZ
    dof rx rz
    limits (-90.0 90.0)
           (-45.0 45.0)
  end
  begin
     id 29
     name rfingers
     direction -1 -4.48961e-011 2.88371e-027   
     length 0.670577   
     axis -1.84005e-015 -90 -90   XYZ
    dof rx
    limits (0.0 90.0)
  end
  begin
     id 30
     name rthumb
     direction -0.707107 -6.34929e-011 0.707107   
     length 0.962818   
     axis -90 -45 -2.85299e-015   XYZ
    dof rx rz
    limits (-45.0 45.0)
           (-45.0 45.0)
  end
:hierarchy
  begin
    root lhipjoint rhipjoint lowerback
    lhipjoint lfemur
    lfemur ltibia
    ltibia lfoot
    lfoot ltoes
    rhipjoint rfemur
    rfemur rtibia
    rtibia rfoot
    rfoot rtoes
    lowerback upperback
    upperback thorax
    thorax lowerneck lclavicle rclavicle
    lowerneck upperneck
    upperneck head
    lclavicle lhumerus
    lhumerus lradius
    lradius lwrist
    lwrist lhand lthumb
    lhand lfingers
    rclavicle rhumerus
    rhumerus rradius
    rradius rwrist
    rwrist rhand rthumb
    rhand rfingers
  end

#!OML:ASF E:\id_vita\Project 1\Capture day 1\Session 1\Female.ASF
:FULLY-SPECIFIED
:DEGREES
587
root -23.8598 16.3976 2.18447 -167.82 6.03128 -178.588
lowerback -14.4766 0.463152 -1.45488
upperback -6.01176 1.5697 1.96717
thorax 1.67868 1.17663 3.13355
lowerneck 7.01323 0.740403 -1.75774
upperneck 2.74855 1.15835 6.35615
head -0.386469 0.6392 2.27569
rclavicle 6.70898e-015 5.56597e-015
rhumerus 4.64929 59.8901 -97.1463
rradius 133.568
rwrist -22.2077
rhand -42.9029 7.86
rfingers 7.12502
rthumb -15.7648 -21.518
lclavicle 6.70898e-015 5.56597e-015
lhumerus -44.7416 39.999 64.6056
lradius 11.768
lwrist -70.596
lhand 3.34364 20.8631
lfingers 7.12502
lthumb 28.7889 48.663
rfemur -18.1013 5.55521 19.4417
rtibia 23.7092
rfoot -11.1543 -14.2758
rtoes -19.7718
lfemur -18.5939 -13.5231 -16.783
ltibia 27.3501
lfoot -22.1635 10.7107
ltoes 1.42237
588
root -23.8573 16.3991 2.18731 -167.81 6.04892 -178.49
lowerback -14.4392 0.485956 -1.3708
upperback -6.00725 1.58698 1.99725
thorax 1.66352 1.18429 3.11895
lowerneck 6.90683 0.669052 -1.83184
upperneck 2.78783 1.05563 6.42704
head -0.352874 0.588938 2.31531
rclavicle 3.15571e-014 2.06736e-014
rhumerus 4.60945 59.7901 -97.1054
rradius 133.749
rwrist -22.4202
rhand -42.8753 7.07047
rfingers 7.12502
rthumb -15.7382 -22.3096
lclavicle 3.15571e-014 2.06736e-014
lhumerus -44.6598 40.0492 64.6377
lradius 11.7147
lwrist -70.6896
lhand 3.24044 20.9743
lfingers 7.12502
lthumb 28.6903 48.7909
rfemur -18.0958 5.56334 19.5461
rtibia 23.6433
rfoot -11.1955 -14.1067
rtoes -18.9023
lfemur -18.6393 -13.4874 -16.6652
ltibia 27.4198
lfoot -22.1661 10.7046
ltoes 1.08237
589
root -23.8566 16.4011 2.19654 -167.671 6.06757 -178.261
lowerback -14.4275 0.527231 -1.15978
upperback -6.05624 1.62418 2.05782
thorax 1.60682 1.20683 3.06716
lowerneck 6.81162 0.585605 -1.80981
upperneck 2.82678 0.942521 6.39594
head -0.318839 0.534441 2.30384
rclavicle 2.1419e-014 2.06736e-014
rhumerus 4.61584 59.7271 -97.0435
rradius 133.846
rwrist -22.508
rhand -42.9461 6.81355
rfingers 7.12502
rthumb -15.8064 -22.5611
lclavicle 2.1419e-014 2.06736e-014
lhumerus -44.5285 39.9192 64.7987
lradius 11.7134
lwrist -70.7075
lhand 3.31543 20.9982
lfingers 7.12502
lthumb 28.7619 48.8027
rfemur -18.2542 5.62433 19.7951
rtibia 23.5675
rfoot -11.12 -14.0322
rtoes -18.6049
lfemur -18.8634 -13.4057 -16.3646
ltibia 27.5129
lfoot -22.0893 10.7208
ltoes 0.726737
590
root -23.8556 16.4019 2.20453 -167.525 6.11538 -178.118
lowerback -14.4108 0.564056 -1.0049
upperback -6.13307 1.66746 2.08054
thorax 1.51773 1.23452 3.00751
lowerneck 7.16334 0.683795 -1.64271
upperneck 2.47721 1.09505 6.28258
head -0.493237 0.59822 2.23259
rclavicle -6.5102e-015 1.19271e-015
rhumerus 4.57338 59.6494 -97.1233
rradius 133.877
rwrist -22.711
rhand -42.9666 6.5442
rfingers 7.12502
rthumb -15.8261 -22.8289
lclavicle -6.5102e-015 1.19271e-015
lhumerus -44.4964 39.8684 64.8179
lradius 11.7003
lwrist -70.8198
lhand 3.34602 20.7131
lfingers 7.12502
lthumb 28.7911 48.5126
rfemur -18.4083 5.53865 19.9775
rtibia 23.4669
rfoot -11.0594 -13.9593
rtoes -19.2097
lfemur -19.1036 -13.256 -16.1689
ltibia 27.6234
lfoot -22.1353 10.6908
ltoes 0.838112
591
root -23.853 16.4014 2.20502 -167.513 6.18572 -178.087
lowerback -14.3895 0.588975 -0.954862
upperback -6.14692 1.69576 2.08288
thorax 1.49138 1.24907 2.98482
lowerneck 7.09791 1.27534 -0.81269
upperneck 2.61446 1.92286 5.29916
head -0.446611 1.02456 1.74071
rclavicle -1.99282e-014 -1.03368e-014
rhumerus 4.4986 59.7056 -97.2359
rradius 133.924
rwrist -22.6198
rhand -43.1729 5.53881
rfingers 7.12502
rthumb -16.0249 -23.8185
lclavicle -1.99282e-014 -1.03368e-014
lhumerus -44.4647 39.8577 64.8418
lradius 11.6561
lwrist -70.9152
lhand 3.2566 20.4087
lfingers 7.12502
lthumb 28.7057 48.2226
rfemur -18.3847 5.40967 20.0416
rtibia 23.3648
rfoot -11.0138 -13.8613
rtoes -19.9288
lfemur -19.1521 -13.2912 -16.1265
ltibia 27.7214
lfoot -22.2522 10.7144
ltoes 1.47979
